<svg id="svg" version="1.1" xmlns="http://www.w3.org/2000/svg" xmlns:xlink="http://www.w3.org/1999/xlink" width="400" height="352.65306122448976" viewBox="0, 0, 400,352.65306122448976"><g id="svgg"><path id="path0" d="M256.358 0.421 C 253.880 0.938,251.012 2.441,250.098 3.702 C 249.162 4.993,249.559 6.092,255.911 19.796 C 286.198 85.137,304.223 159.350,307.955 234.082 C 308.586 246.720,308.649 247.365,309.473 249.509 C 311.231 254.091,323.090 251.730,324.493 246.519 C 326.312 239.765,320.414 182.696,314.669 151.458 C 310.630 129.496,301.076 93.498,295.272 78.367 C 294.971 77.582,293.509 73.449,292.024 69.184 C 285.215 49.628,269.203 10.255,265.424 3.776 C 263.575 0.605,260.656 -0.475,256.358 0.421 M329.686 22.788 C 324.337 32.607,324.372 31.826,329.131 35.201 C 356.986 54.956,373.968 80.698,379.048 110.866 C 379.992 116.473,380.139 141.095,379.265 147.143 C 377.434 159.801,374.166 169.636,367.100 183.751 L 364.915 188.115 367.254 189.524 C 370.222 191.313,382.078 197.242,382.281 197.039 C 382.740 196.579,389.154 182.861,390.533 179.388 C 411.629 126.250,396.403 65.559,352.653 28.400 C 346.600 23.258,335.442 15.520,334.070 15.513 C 333.839 15.511,331.866 18.785,329.686 22.788 M237.608 24.203 C 192.969 67.980,135.737 104.458,72.923 129.171 L 62.785 133.160 63.053 137.498 C 65.115 170.962,69.853 190.198,82.620 216.939 C 86.277 224.598,84.213 223.912,99.085 222.411 C 155.150 216.752,207.141 219.554,259.796 231.071 C 270.839 233.487,293.771 239.553,298.128 241.211 C 300.031 241.935,300.215 241.391,300.106 235.385 C 298.826 164.746,280.806 89.240,250.188 26.224 C 247.761 21.230,245.557 17.143,245.291 17.143 C 245.025 17.143,241.568 20.320,237.608 24.203 M312.960 53.379 C 310.620 57.582,308.446 61.458,308.128 61.992 C 307.663 62.775,307.654 63.001,308.080 63.155 C 311.503 64.391,325.352 77.683,329.887 84.085 C 340.465 99.016,344.684 113.141,344.382 132.614 C 344.152 147.449,342.828 153.111,336.358 166.939 L 333.588 172.857 340.161 176.202 C 350.991 181.714,350.961 181.711,353.111 177.452 C 376.273 131.568,362.212 75.948,320.342 47.838 L 317.215 45.738 312.960 53.379 M45.510 138.648 C 44.612 138.975,40.734 140.143,36.891 141.243 C 20.415 145.961,14.858 149.284,7.721 158.688 C -0.845 169.976,-1.845 181.128,3.907 201.249 C 9.958 222.415,29.593 234.820,50.415 230.631 C 60.163 228.670,71.837 225.929,71.837 225.600 C 71.837 225.402,70.534 222.271,68.941 218.641 C 57.380 192.294,52.391 172.942,50.615 147.551 C 49.905 137.413,49.732 137.112,45.510 138.648 M144.898 229.850 C 124.828 230.415,101.845 234.358,97.435 237.993 C 94.624 240.310,94.988 241.078,102.641 248.980 C 115.723 262.484,117.736 265.850,120.584 278.980 C 127.998 313.156,135.842 331.437,148.533 344.115 C 156.954 352.527,162.061 353.965,174.286 351.365 C 186.041 348.864,193.668 342.843,195.136 334.904 C 195.661 332.060,194.766 328.446,191.246 319.200 C 185.679 304.576,185.296 302.695,185.018 288.571 C 184.752 275.065,184.999 273.038,188.334 261.346 C 193.757 242.331,194.362 234.057,190.408 232.987 C 182.428 230.826,161.491 229.383,144.898 229.850 " stroke="none" fill="#e9e9e9" fill-rule="evenodd"></path></g></svg>